<svg id="services" width="1440" height="363" viewBox="0 0 1440 363" fill="none" xmlns="http://www.w3.org/2000/svg">
  <path d="M-82 332.995C-55.7625 334.67 -30.0131 336.308 -3.64146 336.485C97.3325 337.161 197.925 338.395 298.556 328.535C414.49 317.176 530.04 299.859 639.76 260.183C733.766 226.19 822.39 179.379 906.862 126.874C939.289 106.719 974.602 84.406 998.289 53.966C1002.5 47.6943 1007.33 35.4538 998.289 21.6943C992.903 13.4991 984 8.33429 974.43 6.08502C955.94 1.73922 930.053 1.94851 911.238 2.02968C878.571 2.17061 851.319 4.01738 819.049 9.33293C780.41 15.6977 728.975 31.002 697.5 54.1943C678.5 68.1943 666 83.6943 661.243 90.8079C656.026 98.6089 651.629 107.812 650.501 117.276C649.264 127.662 652.83 139.104 657.233 148.398C670.833 177.096 697.101 196.839 724.455 212.095C766.764 235.694 812.442 253.305 857.808 270.266C926.675 296.014 1006.03 282.048 1077.5 299.694C1122.46 310.795 1167.72 320.158 1213.23 328.828C1259 337.547 1304.8 346.785 1350.99 353.211C1407.57 361.085 1464.5 360.822 1521.52 360.822" stroke="#CAD1C6" stroke-width="3" stroke-linecap="round"/>
</svg>