<svg id="logo" width="32" height="44" viewBox="0 0 32 44" fill="none" xmlns="http://www.w3.org/2000/svg">
<path d="M0 0.297465V0H8.9501C17.2689 0 20.7969 3.82986 20.7969 12.6423C20.7969 21.1944 17.4917 26.5859 9.69284 26.5859H0V26.2885H2.37679V0.297465H0ZM8.9501 0.297465H7.4646V26.2885H9.69284C14.1493 26.2885 15.5977 21.2315 15.5977 12.6423C15.5977 4.01577 14.0008 0.297465 8.9501 0.297465Z" fill="#ffffff"/>
<path d="M9.75474 17.3397V17.0423H19.0019V17.3397H16.9965C17.0337 17.8975 17.2193 18.5296 17.405 19.0501L23.087 36.7493L28.7691 18.9014C28.8805 18.5668 28.9176 18.3808 28.9176 18.1206C28.9176 17.5628 28.3977 17.3397 27.5807 17.3397H25.7238V17.0423H32V17.3397C29.9574 17.3397 29.5489 17.7859 29.1033 19.1617L21.193 44H20.5246L11.5373 17.3397H9.75474Z" fill="#ffffff"/>
</svg>
